<?xml version="1.0" encoding="utf-8"?>
<!-- Generator: Adobe Illustrator 20.0.0, SVG Export Plug-In . SVG Version: 6.00 Build 0)  -->
<!DOCTYPE svg PUBLIC "-//W3C//DTD SVG 1.1//EN" "http://www.w3.org/Graphics/SVG/1.1/DTD/svg11.dtd">
<svg version="1.1" id="Layer_1" xmlns="http://www.w3.org/2000/svg" xmlns:xlink="http://www.w3.org/1999/xlink" x="0px" y="0px"
	 viewBox="0 0 651.6 448" style="enable-background:new 0 0 651.6 448;" xml:space="preserve">
<style type="text/css">
	.st0{enable-background:new    ;}
	.st1{fill:#3E3E3F;}
</style>
<title>Artboard 8</title>
<g id="Home">
	<g class="st0">
		<g>
			<path class="st1" d="M55.3,90L48.6,99v33.5H12V11.7h36.6V57l31.7-45.3h44.7L79.4,67.9l47.6,64.7H82.5L55.3,90z"/>
		</g>
		<g>
			<path class="st1" d="M183.4,93.8h-13.2v38.8h-36.6V11.7h64.5c28.3,0,43.5,18.8,43.5,41.5c0,20.8-12.1,31.9-21.7,36.6l21.9,42.8
				h-41.7L183.4,93.8z M192.4,42.1h-22.3v21.2h22.3c6.2,0,12-4,12-10.7C204.4,46.1,198.6,42.1,192.4,42.1z"/>
		</g>
		<g>
			<path class="st1" d="M256.4,11.7H293v120.8h-36.6V11.7z"/>
		</g>
		<g>
			<path class="st1" d="M322.3,88.3c9.1,8.7,22.6,15.6,38.9,15.6c6.9,0,13.4-2.4,13.4-7.1c0-4.7-5.1-7.1-17-9.2
				c-19.9-3.6-50.4-8.3-50.4-38.6c0-20.5,17-39.1,50.2-39.1c19.7,0,37.5,5.6,51.3,16.8l-19.6,25.9c-10.5-8-24.1-12-33.7-12
				c-9.1,0-11,3.3-11,6.3c0,4.7,4.9,6.3,17.8,8.5c19.9,3.4,49.5,9.2,49.5,37.1c0,26.6-19.7,42-52.2,42c-25.7,0-43.3-7.6-56.2-19.2
				L322.3,88.3z"/>
		</g>
	</g>
	<g class="st0">
		<g>
			<path class="st1" d="M449.5,43.6h-32.4V11.7h101.3v31.9h-32.2v88.9h-36.6V43.6z"/>
		</g>
	</g>
	<g class="st0">
		<g>
			<path class="st1" d="M598.2,117h-46.4l-4.7,15.6h-39.7L552,11.7h46l44.6,120.8h-39.7L598.2,117z M561.3,86.5h27.5L575,43.9
				L561.3,86.5z"/>
		</g>
	</g>
	<g class="st0">
		<g>
			<path class="st1" d="M33.8,236.7l-13.4,14.7v42.2H10.1V172.7h10.3v66.1l58.3-66.1H92l-51.4,57.6l56.3,63.2H83.7L33.8,236.7z"/>
		</g>
	</g>
	<g class="st0">
		<g>
			<path class="st1" d="M160.7,170.7c35.3,0,58.7,27.2,58.7,62.5c0,35.3-23.4,62.5-58.7,62.5c-35.5,0-58.7-27.2-58.7-62.5
				C102,197.9,125.1,170.7,160.7,170.7z M160.7,180.1c-29.3,0-47.8,22.3-47.8,53.1c0,30.4,18.5,53.1,47.8,53.1
				c29,0,47.8-22.6,47.8-53.1C208.5,202.4,189.6,180.1,160.7,180.1z"/>
		</g>
		<g>
			<path class="st1" d="M244.9,172.7h45.3c23.2,0,36.4,16.3,36.4,35.3s-13.4,35.3-36.4,35.3h-35v50.2h-10.3V172.7z M289.1,182.1
				h-33.9V234h33.9c15.9,0,26.6-10.7,26.6-25.9S305,182.1,289.1,182.1z"/>
		</g>
		<g>
			<path class="st1" d="M348.3,172.7h45.3c23.2,0,36.4,16.3,36.4,35.3s-13.4,35.3-36.4,35.3h-35v50.2h-10.3V172.7z M392.5,182.1
				h-33.9V234h33.9c15.9,0,26.6-10.7,26.6-25.9S408.5,182.1,392.5,182.1z"/>
		</g>
		<g>
			<path class="st1" d="M451.8,172.7h76.6v9.4h-66.3v44.7h65v9.4h-65v47.8h66.3v9.4h-76.6V172.7z"/>
		</g>
		<g>
			<path class="st1" d="M590.9,243.6h-26.6v50h-10.3V172.7H599c20.8,0,36.8,13.2,36.8,35.3c0,21.9-15.6,34.1-33.5,34.8l35,50.7
				h-12.5L590.9,243.6z M598.1,182.1h-33.9v52h33.9c15.9,0,26.8-10.9,26.8-26.1S614.1,182.1,598.1,182.1z"/>
		</g>
	</g>
	<g>
		<rect x="11.8" y="339.8" class="st1" width="625" height="4"/>
	</g>
	<g>
		<rect x="11.8" y="434.8" class="st1" width="625" height="4"/>
	</g>
	<g class="st0">
		<g>
			<path class="st1" d="M88.3,371.1h13.6c10.8,0,18.4,6.9,18.4,17.3s-7.5,17.3-18.4,17.3H88.3V371.1z M101.9,399.2
				c6.9,0,10.8-4.9,10.8-10.8c0-6.1-3.7-10.8-10.8-10.8h-6.3v21.6H101.9z"/>
		</g>
		<g>
			<path class="st1" d="M146,370.5c10.5,0,18.1,7.5,18.1,17.9s-7.6,17.9-18.1,17.9c-10.4,0-18.1-7.5-18.1-17.9
				S135.6,370.5,146,370.5z M146,377.1c-6.4,0-10.5,4.9-10.5,11.4c0,6.4,4.1,11.4,10.5,11.4c6.4,0,10.5-4.9,10.5-11.4
				C156.5,381.9,152.4,377.1,146,377.1z"/>
		</g>
		<g>
			<path class="st1" d="M173.4,371.1h7.5v20.6c0,4.8,2.6,8.1,8,8.1c5.3,0,7.9-3.3,7.9-8.1v-20.6h7.5v20.8c0,8.6-4.9,14.5-15.4,14.5
				c-10.6,0-15.5-5.9-15.5-14.4V371.1z"/>
		</g>
		<g>
			<path class="st1" d="M215.3,371.1h18.2c6.6,0,10,4.2,10,8.8c0,4.4-2.7,7.3-6,7.9c3.7,0.6,6.6,4.2,6.6,8.5c0,5.2-3.5,9.3-10.1,9.3
				h-18.8V371.1z M231.9,385c2.5,0,4-1.6,4-3.8c0-2.1-1.6-3.8-4-3.8h-9.2v7.6H231.9z M232.1,399.4c2.8,0,4.5-1.6,4.5-4.1
				c0-2.2-1.6-4-4.5-4h-9.5v8.1H232.1z"/>
		</g>
		<g>
			<path class="st1" d="M253.8,371.1h7.4v28.1h14.6v6.5h-22V371.1z"/>
		</g>
	</g>
	<g class="st0">
		<g>
			<path class="st1" d="M283.3,371.1h24.5v6.3h-17.1v7.5h16.8v6.3h-16.8v8h17.1v6.4h-24.5V371.1z"/>
		</g>
	</g>
	<g class="st0">
		<g>
			<path class="st1" d="M340,371.1h18.2c6.6,0,10,4.2,10,8.8c0,4.4-2.7,7.3-6,7.9c3.7,0.6,6.6,4.2,6.6,8.5c0,5.2-3.5,9.3-10.1,9.3
				H340V371.1z M356.6,385c2.5,0,4-1.6,4-3.8c0-2.1-1.6-3.8-4-3.8h-9.2v7.6H356.6z M356.8,399.4c2.8,0,4.5-1.6,4.5-4.1
				c0-2.2-1.6-4-4.5-4h-9.5v8.1H356.8z"/>
		</g>
	</g>
	<g class="st0">
		<g>
			<path class="st1" d="M399.9,399.7h-15.5l-2.2,6h-8.1l13.4-34.6h9.2l13.3,34.6h-8L399.9,399.7z M386.4,393.3h11.5l-5.7-15.9
				L386.4,393.3z"/>
		</g>
	</g>
	<g class="st0">
		<g>
			<path class="st1" d="M418.1,395.2c2.4,2.5,6.2,4.7,11,4.7c4,0,6-1.9,6-3.9c0-2.6-3-3.5-7-4.4c-5.7-1.3-12.9-2.9-12.9-10.6
				c0-5.8,5-10.4,13.1-10.4c5.5,0,10.1,1.7,13.5,4.8l-4.1,5.4c-2.8-2.6-6.5-3.8-9.9-3.8c-3.3,0-5.1,1.5-5.1,3.5c0,2.3,2.9,3.1,6.9,4
				c5.7,1.3,13,3,13,10.7c0,6.3-4.5,11.1-13.9,11.1c-6.6,0-11.4-2.2-14.6-5.5L418.1,395.2z"/>
		</g>
		<g>
			<path class="st1" d="M453.3,395.2c2.4,2.5,6.2,4.7,11,4.7c4,0,6-1.9,6-3.9c0-2.6-3-3.5-7-4.4c-5.7-1.3-12.9-2.9-12.9-10.6
				c0-5.8,5-10.4,13.1-10.4c5.5,0,10.1,1.7,13.5,4.8l-4.1,5.4c-2.8-2.6-6.5-3.8-9.9-3.8c-3.3,0-5.1,1.5-5.1,3.5c0,2.3,2.9,3.1,6.9,4
				c5.7,1.3,13,3,13,10.7c0,6.3-4.5,11.1-13.9,11.1c-6.6,0-11.4-2.2-14.6-5.5L453.3,395.2z"/>
		</g>
		<g>
			<path class="st1" d="M486.9,371.1h7.4v34.6h-7.4V371.1z"/>
		</g>
	</g>
	<g class="st0">
		<g>
			<path class="st1" d="M505.6,395.2c2.4,2.5,6.2,4.7,11,4.7c4,0,6-1.9,6-3.9c0-2.6-3-3.5-7-4.4c-5.7-1.3-12.9-2.9-12.9-10.6
				c0-5.8,5-10.4,13.1-10.4c5.5,0,10.1,1.7,13.5,4.8l-4.1,5.4c-2.8-2.6-6.5-3.8-9.9-3.8c-3.3,0-5.1,1.5-5.1,3.5c0,2.3,2.9,3.1,6.9,4
				c5.7,1.3,13,3,13,10.7c0,6.3-4.5,11.1-13.9,11.1c-6.6,0-11.4-2.2-14.6-5.5L505.6,395.2z"/>
		</g>
	</g>
	<g class="st0">
		<g>
			<path class="st1" d="M546.4,377.6h-10.1v-6.5h27.6v6.5h-10.1v28.1h-7.4V377.6z"/>
		</g>
	</g>
</g>
</svg>
