<?xml version="1.0" encoding="utf-8"?>
<!-- Generator: Adobe Illustrator 20.0.0, SVG Export Plug-In . SVG Version: 6.00 Build 0)  -->
<!DOCTYPE svg PUBLIC "-//W3C//DTD SVG 1.1//EN" "http://www.w3.org/Graphics/SVG/1.1/DTD/svg11.dtd">
<svg version="1.1" id="Layer_1" xmlns="http://www.w3.org/2000/svg" xmlns:xlink="http://www.w3.org/1999/xlink" x="0px" y="0px"
	 viewBox="0 0 95.9 44.1" style="enable-background:new 0 0 95.9 44.1;" xml:space="preserve">
<style type="text/css">
	.st0{enable-background:new    ;}
	.st1{fill:#C99E52;}
</style>
<title>Artboard 9</title>
<g id="Home">
	<g class="st0">
		<path class="st1" d="M7.8,12.9l-1,1.3v4.9H1.4V1.4h5.4V8l4.7-6.7h6.6l-6.7,8.3l7,9.5h-6.6L7.8,12.9z"/>
		<path class="st1" d="M26.7,13.5h-1.9v5.7h-5.4V1.4h9.5c4.2,0,6.4,2.8,6.4,6.1c0,3.1-1.8,4.7-3.2,5.4l3.2,6.3h-6.1L26.7,13.5z
			 M28,5.9h-3.3V9H28c0.9,0,1.8-0.6,1.8-1.6C29.8,6.4,28.9,5.9,28,5.9z"/>
		<path class="st1" d="M37.4,1.4h5.4v17.8h-5.4V1.4z"/>
		<path class="st1" d="M47.1,12.7c1.3,1.3,3.3,2.3,5.7,2.3c1,0,2-0.3,2-1c0-0.7-0.7-1-2.5-1.4c-2.9-0.5-7.4-1.2-7.4-5.7
			c0-3,2.5-5.8,7.4-5.8c2.9,0,5.5,0.8,7.5,2.5L57,7.4c-1.5-1.2-3.5-1.8-5-1.8c-1.3,0-1.6,0.5-1.6,0.9c0,0.7,0.7,0.9,2.6,1.3
			c2.9,0.5,7.3,1.4,7.3,5.5c0,3.9-2.9,6.2-7.7,6.2c-3.8,0-6.4-1.1-8.3-2.8L47.1,12.7z"/>
	</g>
	<g class="st0">
		<path class="st1" d="M65.9,6.1h-4.8V1.4H76v4.7h-4.7v13.1h-5.4V6.1z"/>
	</g>
	<g class="st0">
		<path class="st1" d="M87.8,16.9h-6.8l-0.7,2.3h-5.8L81,1.4h6.8l6.6,17.8h-5.8L87.8,16.9z M82.3,12.4h4.1l-2-6.3L82.3,12.4z"/>
	</g>
	<g class="st0">
		<path class="st1" d="M5.7,34.5l-2,2.2v6.2H2.2V25.1h1.5v9.7l8.6-9.7h1.9l-7.6,8.5l8.3,9.3H13L5.7,34.5z"/>
	</g>
	<g class="st0">
		<path class="st1" d="M24.4,24.8c5.2,0,8.6,4,8.6,9.2s-3.4,9.2-8.6,9.2c-5.2,0-8.6-4-8.6-9.2S19.2,24.8,24.4,24.8z M24.4,26.2
			c-4.3,0-7,3.3-7,7.8c0,4.5,2.7,7.8,7,7.8c4.3,0,7-3.3,7-7.8C31.4,29.5,28.6,26.2,24.4,26.2z"/>
		<path class="st1" d="M36.8,25.1h6.7c3.4,0,5.4,2.4,5.4,5.2c0,2.8-2,5.2-5.4,5.2h-5.1v7.4h-1.5V25.1z M43.3,26.5h-5v7.6h5
			c2.3,0,3.9-1.6,3.9-3.8C47.2,28,45.6,26.5,43.3,26.5z"/>
		<path class="st1" d="M52,25.1h6.7c3.4,0,5.4,2.4,5.4,5.2c0,2.8-2,5.2-5.4,5.2h-5.1v7.4H52V25.1z M58.5,26.5h-5v7.6h5
			c2.3,0,3.9-1.6,3.9-3.8C62.4,28,60.9,26.5,58.5,26.5z"/>
		<path class="st1" d="M67.2,25.1h11.3v1.4h-9.8v6.6h9.6v1.4h-9.6v7h9.8v1.4H67.2V25.1z"/>
		<path class="st1" d="M87.7,35.5h-3.9v7.4h-1.5V25.1h6.6c3.1,0,5.4,1.9,5.4,5.2c0,3.2-2.3,5-4.9,5.1l5.1,7.5h-1.8L87.7,35.5z
			 M88.8,26.5h-5v7.7h5c2.3,0,3.9-1.6,3.9-3.8C92.7,28,91.1,26.5,88.8,26.5z"/>
	</g>
</g>
</svg>
